<svg version="1" xmlns="http://www.w3.org/2000/svg" width="346.667" height="346.667" viewBox="0 0 260.000000 260.000000"><path d="M123 36.7c-21.7 2.7-39.8 11.1-54.3 25.2C56.6 73.5 48.3 86.7 43.5 102c-3.3 10.5-4.5 30.4-2.5 42.7 5.9 36.6 35.5 67.1 72.5 74.8 4.1.8 8.8 1.5 10.5 1.5h3v-15.5c0-8.5-.1-15.5-.3-15.5-.2 0-3-.5-6.3-1.1-7.5-1.4-18.8-6.6-23.8-11-6.3-5.5-15.2-20.6-13.2-22.6.7-.7 15.6-4.2 18.2-4.3 1.5 0 2.7 1.3 4.4 5 5 10.6 12.4 15.1 26.1 15.8 17 .9 27.9-6.2 27.9-18.1 0-8.3-9.7-15.3-22.7-16.2-15.8-1.1-36.1-9-42.5-16.5-5.4-6.3-7.1-12.3-6.6-23.4.3-7.7.8-9.9 3.3-14.5 5.1-9.3 15.4-15.7 29.8-18.4l5.7-1.1V50.4c0-7.3-.3-13.4-.7-13.6-.5-.2-1.9-.3-3.3-.1z"/><path d="M141 49.9v14l5.3 1c12.5 2.7 22.6 10.2 27.8 20.7 2.2 4.4 2.9 6.8 2.2 7.2-2.5 1.6-18.7 4.5-19 3.5-.2-.6-1.7-3.1-3.3-5.6-4.4-7-8.6-8.7-21.2-8.6-14.5.1-20.3 2.7-22.8 10.4-3.7 11.3 4 18 23.6 20.5 4.9.6 14.3 2.8 20.9 4.8 11.3 3.4 12.3 4 17.2 8.9 7.4 7.5 9.6 13.9 9.1 26.3-.4 10.6-2.3 15.7-8.4 22.9-4.7 5.4-17.8 12-25.7 12.8l-5.7.6V221h2.6c4.9 0 17-3.3 25.4-6.9 12.1-5.2 19.2-10.2 29.5-20.5 12.1-12.2 18.7-23.8 24.2-42.1 2.5-8.5 2.6-36.2.1-45.3-9.2-33-33.1-57.6-64.8-66.5-4.7-1.3-10.4-2.7-12.7-3.1L141 36v13.9z"/></svg>