<svg version="1" xmlns="http://www.w3.org/2000/svg" width="346.667" height="346.667" viewBox="0 0 260.000000 260.000000"><path d="M25.2 70.7l.3 49.7 9.5-.1c5.2-.1 10.5-.2 11.8-.2l2.2-.1V84.7 45h71.9V33l-.1-12H25l.2 49.7zM144.3 33v12h71.4v166.7l-33.6.1c-18.5 0-34.5.1-35.7.1-2 .1-2.1.6-2.1 12v11.8H239.6V21h-95.2l-.1 12z"/><path d="M95.5 80.3c-11.5 3.8-15.2 15-8.3 24.9 1 1.5 1.4 2.9.9 3.2-1.3.8-4.2 13.3-4.3 18.6-.6 21.9 13.8 41.9 34.9 48.4 9 2.8 22.7 2.2 30.9-1.3 3.9-1.8 4.1-1.8 6.8.2 6.4 4.6 17.2 2.8 21.9-3.7 3.8-5.4 3-16.5-1.6-19.7-.5-.4-.2-2 .7-3.8.9-1.7 1.4-3.1 1-3.1-.4 0 0-.7.7-1.7 1-1.2 1.4-4.9 1.4-13.8v-12.2l-4.2-8.4c-2.6-5.1-6.2-10.4-9.3-13.5-10.6-10.8-27.6-16.4-42-13.9-5.2.9-10.3 2.4-12 3.4-1 .7-2.5.4-4.8-1.1-4.5-2.8-9.1-3.7-12.7-2.5zm49 4.2c1.7.4 6 2.3 9.8 4.3 8.3 4.3 15.4 11.8 19.8 21 2.8 5.8 3.3 8 3.6 16.2.5 11.7-2 21.8-5.3 21.1-1-.2-4.2-.4-7.1-.5-5.8-.1-9.2 1.8-13.1 7.5-2.4 3.4-2.5 4.8-1 14.4.2 1.6-.7 2.3-4.7 3.7-6.5 2.2-21.4 2.3-27 .2-2.2-.8-4.9-1.8-6-2.1-2.6-.8-11.3-7.3-14.6-10.9-7.8-8.6-11.6-18.4-11.7-29.9-.1-7.4 1.6-16.1 3.7-19.4.7-1 1.3-1.1 3.1-.1 3.1 1.6 10.6.7 13.8-1.7 4.7-3.5 6.7-7.1 6.7-12.1 0-2.6-.4-5.7-.8-6.9-.7-2-.3-2.4 5.5-4.1 6.4-2 18.9-2.3 25.3-.7zM25 188.9v46.9l47.9-.1h47.8l.1-11.9c.1-11.5.1-11.8-2.1-11.9-1.2 0-17.4-.1-35.9-.1-24.4 0-33.8-.4-33.8-1.2V142H25v46.9z"/></svg>